<svg width="17" height="17" viewBox="0 0 17 17" fill="none" xmlns="http://www.w3.org/2000/svg">
<path id="Vector" d="M4.47422 5V5.5H4.50535C4.4848 5.3362 4.47422 5.16932 4.47422 5ZM4.47422 5V4.5H4.50536C4.48481 4.6638 4.47422 4.83067 4.47422 5ZM5.63242 8.48159C5.4893 8.36491 5.3535 8.23968 5.2258 8.10666C5.39842 8.04009 5.5736 7.97862 5.75114 7.92245C5.80239 7.97005 5.85489 8.01634 5.90859 8.06127C5.93817 8.08601 5.96812 8.11035 5.99842 8.13426L4.62153 8.92183C4.78114 8.84103 4.94364 8.76506 5.10883 8.69412C4.97658 8.57419 4.85079 8.44733 4.73202 8.31412C4.893 8.2408 5.05651 8.17203 5.22239 8.10798C5.35021 8.24083 5.48615 8.36593 5.62943 8.4825M5.63242 8.48159L5.62943 8.4825M5.63242 8.48159C5.63465 8.48341 5.63688 8.48523 5.63912 8.48704L5.63242 8.48159ZM5.62943 8.4825L5.52361 8.51497L5.5274 8.5273L5.73433 8.56531C5.70128 8.54 5.66859 8.51424 5.63627 8.48805C5.63399 8.4862 5.63171 8.48435 5.62943 8.4825ZM11.9731 9.28119C11.9734 9.2809 11.9738 9.28061 11.9742 9.28033C14.2502 10.3627 15.9336 12.4748 16.4148 15.0074L16.4086 15.0081C15.9277 12.4739 14.2449 10.3631 11.9731 9.28119ZM13.0046 5.5C12.8925 6.50634 12.4462 7.41314 11.7776 8.10799C11.7765 8.10755 11.7753 8.10711 11.7742 8.10667C12.4406 7.4125 12.8863 6.50647 12.9982 5.5H13.0046ZM8.00003 1V1.03055C8.16385 1.01038 8.33072 1 8.50003 1H8.00003ZM8.38335 0.501468C8.25417 0.504721 8.12633 0.51336 8.00003 0.527169V0.527053C8.1263 0.513303 8.25415 0.504706 8.38335 0.501468ZM8.61983 0.501547C8.74797 0.504846 8.87477 0.513414 9.00003 0.527054V0.527171C8.87475 0.513472 8.74795 0.504861 8.61983 0.501547ZM13.0046 4.5H12.9982H13.0046ZM12.5258 4.5V5V4.5ZM5.02581 9.28032C5.02618 9.28061 5.02654 9.2809 5.0269 9.28119C2.75503 10.3631 1.0722 12.4739 0.591351 15.0081L0.585176 15.0074C1.06641 12.4748 2.74984 10.3627 5.02581 9.28032ZM0.954885 16.3686C0.806922 16.2836 0.685886 16.1621 0.606044 16.0176L0.612428 16.0184C0.690898 16.1613 0.809373 16.2821 0.954885 16.367V16.3686ZM16.3875 16.0184L16.394 16.0176C16.3141 16.1621 16.1931 16.2836 16.0451 16.3686V16.367C16.1906 16.2821 16.3091 16.1613 16.3875 16.0184ZM3.99544 5.5H4.00183C3.98359 5.33584 3.97422 5.16902 3.97422 5C3.97422 4.83097 3.98358 4.66415 4.00182 4.5H3.99545C3.97716 4.66419 3.96777 4.83102 3.96777 5C3.96777 5.16899 3.97716 5.33582 3.99544 5.5Z" fill="black" stroke="white"/>
</svg>
