<svg width="21" height="26" viewBox="0 0 21 26" fill="none" xmlns="http://www.w3.org/2000/svg">
<path id="Vector" d="M11.4242 0.879281L11.4243 0.879724L11.6051 1.80532L11.6051 1.8054C11.6732 2.15372 11.8146 2.48341 12.0203 2.77119C12.226 3.05889 12.4912 3.29799 12.7979 3.47089C12.7981 3.47097 12.7982 3.47105 12.7983 3.47113L13.1767 3.68519L13.1935 3.6947L13.211 3.70288C14.2443 4.18637 15.1395 4.93847 15.8078 5.887C16.4761 6.83561 16.8941 7.94773 17.0197 9.1145L17.0197 9.11466L17.7022 15.4379L17.7022 15.4381C17.844 16.7443 18.4939 17.9416 19.5087 18.753L19.5088 18.7531L19.9559 19.1104C20.1698 19.2815 20.3326 19.5145 20.4223 19.7821C20.5121 20.0498 20.5244 20.3391 20.4575 20.6142L20.4574 20.6142L20.4554 20.6229L20.4413 20.6859C20.3762 20.9503 20.228 21.1823 20.0231 21.3468C19.8175 21.5119 19.5661 21.6001 19.3092 21.6H19.309H14.2925H13.7925V22.1C13.7925 23.0062 13.4424 23.8726 12.8234 24.5092C12.205 25.1453 11.3692 25.5 10.5007 25.5C9.63231 25.5 8.79652 25.1453 8.17804 24.5092C7.55909 23.8726 7.20896 23.0062 7.20896 22.1V21.6H6.70896H1.69142C1.43462 21.5999 1.18348 21.5116 0.978026 21.3465C0.772302 21.1812 0.62381 20.9478 0.559218 20.682L0.559204 20.6819L0.542773 20.6143L0.542695 20.614C0.47566 20.339 0.487805 20.0498 0.577422 19.7821C0.666948 19.5146 0.829346 19.2818 1.04284 19.1105C1.04299 19.1104 1.04314 19.1103 1.04328 19.1102L1.49013 18.7531L1.49041 18.7529C1.99273 18.351 2.41077 17.8503 2.7205 17.281C3.03021 16.7117 3.22555 16.085 3.29548 15.4379L3.29549 15.4378L3.978 9.11342C3.978 9.1134 3.978 9.11337 3.97801 9.11335C4.10412 7.94643 4.52276 6.83434 5.19168 5.88594C5.86055 4.93761 6.75634 4.18591 7.79015 3.70302L7.80719 3.69505L7.82359 3.68583L8.20277 3.47263L8.20321 3.47238C8.51033 3.29929 8.77572 3.05984 8.98149 2.77173C9.18723 2.48365 9.32859 2.15365 9.39645 1.80503L9.39652 1.80468L9.57596 0.879278C9.59748 0.768526 9.65509 0.671622 9.73566 0.603541C9.81582 0.535811 9.91404 0.500292 10.0135 0.5H10.9859C11.0855 0.50009 11.184 0.535545 11.2643 0.603346C11.345 0.671435 11.4027 0.768418 11.4242 0.879281Z" fill="#5F5F5F" stroke="#5F5F5F"/>
</svg>
