<svg width="33" height="29" viewBox="0 0 33 29" fill="none" xmlns="http://www.w3.org/2000/svg">
<path d="M11.4242 3.87928L11.4243 3.87972L11.6051 4.80532L11.6051 4.8054C11.6732 5.15372 11.8146 5.48341 12.0203 5.77119C12.226 6.05889 12.4912 6.29799 12.7979 6.47089C12.7981 6.47097 12.7982 6.47105 12.7983 6.47113L13.1767 6.68519L13.1935 6.6947L13.211 6.70288C14.2443 7.18637 15.1395 7.93847 15.8078 8.887C16.4761 9.83561 16.8941 10.9477 17.0197 12.1145L17.0197 12.1147L17.7022 18.4379L17.7022 18.4381C17.844 19.7443 18.4939 20.9416 19.5087 21.753L19.5088 21.7531L19.9559 22.1104C20.1698 22.2815 20.3326 22.5145 20.4223 22.7821C20.5121 23.0498 20.5244 23.3391 20.4575 23.6142L20.4574 23.6142L20.4554 23.6229L20.4413 23.6859C20.3762 23.9503 20.228 24.1823 20.0231 24.3468C19.8175 24.5119 19.5661 24.6001 19.3092 24.6H19.309H14.2925H13.7925V25.1C13.7925 26.0062 13.4424 26.8726 12.8234 27.5092C12.205 28.1453 11.3692 28.5 10.5007 28.5C9.63231 28.5 8.79652 28.1453 8.17804 27.5092C7.55909 26.8726 7.20896 26.0062 7.20896 25.1V24.6H6.70896H1.69142C1.43462 24.5999 1.18348 24.5116 0.978026 24.3465C0.772302 24.1812 0.62381 23.9478 0.559218 23.682L0.559204 23.6819L0.542773 23.6143L0.542695 23.614C0.47566 23.339 0.487805 23.0498 0.577422 22.7821C0.666948 22.5146 0.829346 22.2818 1.04284 22.1105C1.04299 22.1104 1.04314 22.1103 1.04328 22.1102L1.49013 21.7531L1.49041 21.7529C1.99273 21.351 2.41077 20.8503 2.7205 20.281C3.03021 19.7117 3.22555 19.085 3.29548 18.4379L3.29549 18.4378L3.978 12.1134C3.978 12.1134 3.978 12.1134 3.97801 12.1133C4.10412 10.9464 4.52276 9.83434 5.19168 8.88594C5.86055 7.93761 6.75634 7.18591 7.79015 6.70302L7.80719 6.69505L7.82359 6.68583L8.20277 6.47263L8.20321 6.47238C8.51033 6.29929 8.77572 6.05984 8.98149 5.77173C9.18723 5.48365 9.32859 5.15365 9.39645 4.80503L9.39652 4.80468L9.57596 3.87928C9.59748 3.76853 9.65509 3.67162 9.73566 3.60354C9.81582 3.53581 9.91404 3.50029 10.0135 3.5H10.9859C11.0855 3.50009 11.184 3.53554 11.2643 3.60335C11.345 3.67143 11.4027 3.76842 11.4242 3.87928Z" fill="#5F5F5F" stroke="#5F5F5F"/>
<path d="M18.7898 16.5C14.3055 16.5 10.6812 12.9123 10.6812 8.5C10.6812 4.08769 14.3055 0.5 18.7898 0.5H23.5725C28.0568 0.5 31.6812 4.08769 31.6812 8.5C31.6812 12.9123 28.0568 16.5 23.5725 16.5H18.7898Z" fill="#D32D2F" stroke="white"/>
<path d="M15.4179 12V11.32L18.2679 8.57C18.5212 8.33 18.7079 8.12 18.8279 7.94C18.9545 7.75333 19.0379 7.58333 19.0779 7.43C19.1245 7.27 19.1479 7.11667 19.1479 6.97C19.1479 6.61 19.0212 6.32667 18.7679 6.12C18.5145 5.91333 18.1445 5.81 17.6579 5.81C17.2845 5.81 16.9479 5.87333 16.6479 6C16.3479 6.12 16.0879 6.31 15.8679 6.57L15.1879 5.98C15.4545 5.64 15.8112 5.38 16.2579 5.2C16.7112 5.01333 17.2079 4.92 17.7479 4.92C18.2345 4.92 18.6579 5 19.0179 5.16C19.3779 5.31333 19.6545 5.53667 19.8479 5.83C20.0479 6.12333 20.1479 6.47 20.1479 6.87C20.1479 7.09667 20.1179 7.32 20.0579 7.54C19.9979 7.76 19.8845 7.99333 19.7179 8.24C19.5512 8.48667 19.3112 8.76333 18.9979 9.07L16.4579 11.52L16.2179 11.13H20.4479V12H15.4179ZM24.2003 12.08C23.5803 12.08 23.0503 11.9433 22.6103 11.67C22.1703 11.3967 21.8336 11.0033 21.6003 10.49C21.3736 9.97 21.2603 9.33667 21.2603 8.59C21.2603 7.79667 21.4003 7.12667 21.6803 6.58C21.9603 6.03333 22.3503 5.62 22.8503 5.34C23.3503 5.06 23.9236 4.92 24.5703 4.92C24.9036 4.92 25.2203 4.95333 25.5203 5.02C25.8269 5.08667 26.0903 5.19 26.3103 5.33L25.9303 6.11C25.7503 5.98333 25.5436 5.89667 25.3103 5.85C25.0836 5.80333 24.8436 5.78 24.5903 5.78C23.8769 5.78 23.3103 6.00333 22.8903 6.45C22.4703 6.89 22.2603 7.54667 22.2603 8.42C22.2603 8.56 22.2669 8.72667 22.2803 8.92C22.2936 9.11333 22.3269 9.30333 22.3803 9.49L22.0403 9.15C22.1403 8.84333 22.2969 8.58667 22.5103 8.38C22.7303 8.16667 22.9903 8.01 23.2903 7.91C23.5969 7.80333 23.9269 7.75 24.2803 7.75C24.7469 7.75 25.1603 7.83667 25.5203 8.01C25.8803 8.18333 26.1636 8.43 26.3703 8.75C26.5769 9.06333 26.6803 9.43667 26.6803 9.87C26.6803 10.3167 26.5703 10.7067 26.3503 11.04C26.1303 11.3733 25.8336 11.63 25.4603 11.81C25.0869 11.99 24.6669 12.08 24.2003 12.08ZM24.1603 11.27C24.4669 11.27 24.7336 11.2133 24.9603 11.1C25.1936 10.9867 25.3769 10.83 25.5103 10.63C25.6436 10.4233 25.7103 10.1833 25.7103 9.91C25.7103 9.49667 25.5669 9.17 25.2803 8.93C24.9936 8.68333 24.6036 8.56 24.1103 8.56C23.7903 8.56 23.5103 8.62 23.2703 8.74C23.0303 8.86 22.8403 9.02333 22.7003 9.23C22.5669 9.43 22.5003 9.66 22.5003 9.92C22.5003 10.16 22.5636 10.3833 22.6903 10.59C22.8169 10.79 23.0036 10.9533 23.2503 11.08C23.4969 11.2067 23.8003 11.27 24.1603 11.27Z" fill="white"/>
</svg>
